<?xml version="1.0" encoding="UTF-8"?>
<svg width="28px" height="20px" viewBox="0 0 28 20" version="1.1" xmlns="http://www.w3.org/2000/svg" xmlns:xlink="http://www.w3.org/1999/xlink">
    <!-- Generator: Sketch 54.1 (76490) - https://sketchapp.com -->
    <title>music-on</title>
    <desc>Created with Sketch.</desc>
    <g id="Page-1" stroke="none" stroke-width="1" fill="none" fill-rule="evenodd">
        <g id="music-on" fill="#FFFFFF" fill-rule="nonzero">
            <path d="M15,20 C14.8623047,20 14.7241211,19.9716797 14.5942383,19.9140625 L4.2177734,15.3066406 L1,15.3066406 C0.4477539,15.3066406 0,14.8588867 0,14.3066406 L0,5.6933593 C0,5.1411132 0.4477539,4.6933593 1,4.6933593 L4.2177734,4.6933593 L14.5942382,0.0859374 C14.9033202,-0.0512696 15.2617187,-0.0229493 15.5449218,0.161621 C15.8286133,0.3461914 16,0.6616211 16,1 L16,19 C16,19.3383789 15.8286133,19.6538086 15.5449219,19.8383789 C15.3803711,19.9453125 15.1904297,20 15,20 Z M2,13.3066406 L4.4296875,13.3066406 C4.5693359,13.3066406 4.7075195,13.3359375 4.8354492,13.3925781 L14,17.4619141 L14,2.5380859 L4.8354492,6.6074218 C4.7075195,6.6640624 4.5693359,6.6933593 4.4296875,6.6933593 L2,6.6933593 L2,13.3066406 Z" id="Shape"></path>
            <path d="M22.7514648,18.0683594 C22.3935546,18.0683594 22.0473632,17.8759766 21.8676757,17.5375977 C21.6083984,17.050293 21.7934569,16.4448243 22.2812499,16.1855469 C24.5751953,14.9658203 26,12.5957031 26,10 C26,7.4047852 24.5751953,5.034668 22.28125,3.8149414 C21.793457,3.5556641 21.6083984,2.9501953 21.8676758,2.4628906 C22.1264649,1.9755859 22.7319336,1.7895508 23.2197266,2.0493164 C26.168457,3.6166992 28,6.6635742 28,10 C28,13.3369141 26.168457,16.3837891 23.2197266,17.9511719 C23.0703125,18.0307617 22.909668,18.0683594 22.7514648,18.0683594 Z" id="Path"></path>
            <path d="M19,14.75 C18.4477539,14.75 18,14.3022461 18,13.75 C18,13.1977539 18.4477539,12.75 19,12.75 C20.5166016,12.75 21.75,11.5166016 21.75,10 C21.75,8.4833984 20.5166016,7.25 19,7.25 C18.4477539,7.25 18,6.8022461 18,6.25 C18,5.6977539 18.4477539,5.25 19,5.25 C21.6191406,5.25 23.75,7.3808594 23.75,10 C23.75,12.6191406 21.6191406,14.75 19,14.75 Z" id="Path"></path>
        </g>
    </g>
</svg>