<?xml version="1.0" encoding="UTF-8"?>
<svg width="512px" height="512px" viewBox="0 0 512 512" version="1.1" xmlns="http://www.w3.org/2000/svg" xmlns:xlink="http://www.w3.org/1999/xlink">
    <!-- Generator: Sketch 54.1 (76490) - https://sketchapp.com -->
    <title>swords</title>
    <desc>Created with Sketch.</desc>
    <g id="Page-1" stroke="none" stroke-width="1" fill="none" fill-rule="evenodd">
        <g id="swords" fill-rule="nonzero">
            <path d="M448.238,448.252 C441.185,455.305 437.177,464.168 435.906,473.349 L329.975,367.417 L367.404,329.988 L473.335,435.919 C464.163,437.199 455.292,441.198 448.238,448.252 Z" id="Path" fill="#6C4127"></path>
            <circle id="Oval" fill="#EBBA16" cx="467.862" cy="467.875" r="44.111"></circle>
            <rect id="Rectangle" fill="#8E5F46" transform="translate(399.244224, 399.282081) rotate(-45.000000) translate(-399.244224, -399.282081) " x="372.774977" y="381.63625" width="52.9384923" height="35.2916615"></rect>
            <path d="M461.647,482.97 C463.907,482.97 466.167,482.105 467.888,480.384 L480.361,467.902 C483.804,464.45 483.804,458.871 480.361,455.42 C476.909,451.96 471.322,451.977 467.879,455.42 L455.406,467.902 C451.963,471.354 451.963,476.933 455.406,480.384 C457.128,482.105 459.388,482.97 461.647,482.97 Z" id="Path" fill="#FFFFFF"></path>
            <g id="Group" fill="#AFB6BB">
                <polygon id="Path" points="273.655 211.284 74.858 12.487 0 0.013 12.482 74.871 211.271 273.668"></polygon>
                <rect id="Rectangle" transform="translate(304.405003, 304.423583) rotate(135.000000) translate(-304.405003, -304.423583) " x="260.294426" y="260.9395" width="88.2211539" height="86.968166"></rect>
            </g>
            <path d="M224.812,233.653 C222.552,233.653 220.292,232.788 218.571,231.067 L99.69,112.185 C96.238,108.733 96.238,103.154 99.69,99.703 C103.133,96.251 108.721,96.251 112.172,99.703 L231.053,218.584 C234.505,222.036 234.505,227.615 231.053,231.066 C229.332,232.788 227.063,233.653 224.812,233.653 Z" id="Path" fill="#839594"></path>
            <path d="M63.762,448.252 C70.815,455.305 74.823,464.168 76.094,473.349 L182.025,367.418 L144.596,329.989 L38.665,435.919 C47.837,437.199 56.708,441.198 63.762,448.252 Z" id="Path" fill="#6C4127"></path>
            <circle id="Oval" fill="#EBBA16" cx="44.111" cy="467.875" r="44.111"></circle>
            <polygon id="Path" fill="#E7ECED" points="203.335 371.072 140.941 308.679 437.142 12.487 512 0.013 499.527 74.871"></polygon>
            <g id="Group" transform="translate(178.000000, 44.000000)" fill="#AFB6BB">
                <path d="M9.595,289.246 C7.335,289.246 5.075,288.381 3.354,286.66 C-0.098,283.208 -0.098,277.629 3.354,274.178 L221.828,55.703 C225.271,52.251 230.859,52.251 234.31,55.703 C237.762,59.155 237.762,64.734 234.31,68.185 L15.836,286.659 C14.115,288.381 11.855,289.246 9.595,289.246 Z" id="Path"></path>
                <path d="M254.552,44.289 C252.292,44.289 250.032,43.424 248.311,41.703 C244.859,38.251 244.859,32.672 248.311,29.221 L274.794,2.738 C278.237,-0.714 283.833,-0.714 287.276,2.738 C290.728,6.19 290.728,11.769 287.276,15.22 L260.793,41.703 C259.071,43.424 256.812,44.289 254.552,44.289 Z" id="Path"></path>
            </g>
            <rect id="Rectangle" fill="#8E5F46" transform="translate(112.736959, 399.280826) rotate(-135.000000) translate(-112.736959, -399.280826) " x="86.267713" y="381.634995" width="52.9384923" height="35.2916615"></rect>
            <path d="M50.353,482.97 C48.093,482.97 45.833,482.105 44.112,480.384 L31.639,467.902 C28.196,464.45 28.196,458.871 31.639,455.42 C35.091,451.96 40.678,451.977 44.121,455.42 L56.594,467.902 C60.037,471.354 60.037,476.933 56.594,480.384 C54.872,482.105 52.612,482.97 50.353,482.97 Z" id="Path" fill="#FFFFFF"></path>
            <polygon id="Path" fill="#EBBA16" points="318.164 405.517 405.504 318.177 405.504 280.748 368.075 280.748 280.735 368.088 280.735 405.517"></polygon>
            <path d="M79.448,88.289 C77.188,88.289 74.928,87.424 73.207,85.703 L46.724,59.22 C43.272,55.768 43.272,50.189 46.724,46.738 C50.167,43.286 55.763,43.286 59.206,46.738 L85.689,73.22 C89.141,76.672 89.141,82.251 85.689,85.702 C83.968,87.424 81.708,88.289 79.448,88.289 Z" id="Path" fill="#839594"></path>
            <polygon id="Path" fill="#EBBA16" points="193.836 405.517 106.496 318.177 106.496 280.748 143.925 280.748 231.265 368.088 231.265 405.517"></polygon>
        </g>
    </g>
</svg>