<?xml version="1.0" encoding="UTF-8"?>
<svg width="20px" height="20px" viewBox="0 0 20 20" version="1.1" xmlns="http://www.w3.org/2000/svg" xmlns:xlink="http://www.w3.org/1999/xlink">
    <!-- Generator: Sketch 54.1 (76490) - https://sketchapp.com -->
    <title>music-off</title>
    <desc>Created with Sketch.</desc>
    <g id="Page-1" stroke="none" stroke-width="1" fill="none" fill-rule="evenodd">
        <g id="music-off" fill="#FFFFFF" fill-rule="nonzero">
            <path d="M1.0004883,20 C0.7109375,20 0.4233399,19.875 0.2260742,19.6328125 C-0.1235352,19.2050781 -0.0605469,18.5751953 0.3671875,18.2255859 L18.3671875,3.5073242 C18.7939453,3.1572265 19.425293,3.2202148 19.7739258,3.6484375 C20.1235352,4.0756836 20.0605469,4.7055664 19.6328125,5.0551758 L1.6328125,19.7744141 C1.4472656,19.9257813 1.2231445,20 1.0004883,20 Z" id="Path"></path>
            <path d="M15,20 C14.8623047,20 14.7241211,19.9716797 14.5942383,19.9140625 L8.4194336,17.1728516 C7.9145508,16.9482422 7.6870117,16.3574219 7.9111328,15.8535157 C8.1357422,15.3486329 8.7285156,15.1210938 9.230957,15.3447266 L14,17.4619141 L14,11.1015625 C14,10.5493164 14.4477539,10.1015625 15,10.1015625 C15.5522461,10.1015625 16,10.5493164 16,11.1015625 L16,19 C16,19.3388672 15.8286133,19.6542969 15.5449219,19.8388672 C15.3803711,19.9453125 15.1904297,20 15,20 Z" id="Path"></path>
            <path d="M5.9262695,15.9716797 C5.7905273,15.9716797 5.652832,15.9443359 5.5209961,15.8857422 L4.2177734,15.3066406 L1,15.3066406 C0.4477539,15.3066406 0,14.859375 0,14.3066406 L0,5.6933593 C0,5.1411132 0.4477539,4.6933593 1,4.6933593 L4.2177734,4.6933593 L14.5942382,0.0859374 C14.9042968,-0.0517579 15.2617187,-0.022461 15.5449218,0.161621 C15.8286133,0.3461914 16,0.6616211 16,1 L16,7.5522461 C16,8.1044922 15.5522461,8.5522461 15,8.5522461 C14.4477539,8.5522461 14,8.1044922 14,7.5522461 L14,2.5380859 L4.8354492,6.6074218 C4.7075195,6.6640624 4.5693359,6.6933593 4.4296875,6.6933593 L2,6.6933593 L2,13.3066406 L4.4296875,13.3066406 C4.5693359,13.3066406 4.7080078,13.3359375 4.8354492,13.3925781 L6.3325195,14.0576172 C6.8374023,14.2822266 7.0649414,14.8730469 6.8408203,15.3779297 C6.675293,15.75 6.3095703,15.9716797 5.9262695,15.9716797 Z" id="Path"></path>
        </g>
    </g>
</svg>