<?xml version="1.0" encoding="UTF-8"?>
<svg width="318px" height="83px" viewBox="0 0 318 83" version="1.1" xmlns="http://www.w3.org/2000/svg" xmlns:xlink="http://www.w3.org/1999/xlink">
    <g id="Page-1" stroke="none" stroke-width="1" fill="none" fill-rule="evenodd">
        <g id="banner-copy" fill="#000000" fill-rule="nonzero">
            <path d="M291.927,19.019 L317.113,19.019 L306.509,40.293 L317.113,64.092 L291.927,64.092 L291.927,19.019 Z M262.484,70.999 L262.484,12.111 L286.624,12.111 L286.624,19.019 L286.624,64.092 L286.624,70.999 L262.484,70.999 Z M25.187,64.092 L0,64.092 L10.604,40.956 L0,19.019 L25.187,19.019 L25.187,64.092 Z M30.489,64.092 L30.489,19.019 L30.489,12.111 L54.629,12.111 L54.629,70.999 L30.489,70.999 L30.489,64.092 Z M59.932,6.809 L59.932,0.287 L257.182,0.287 L257.182,6.809 L257.182,9.46 L257.182,12.111 L257.182,70.999 L257.182,73.65 L257.182,76.302 L257.182,82.826 L59.932,82.826 L59.932,76.302 L59.932,73.65 L59.932,70.999 L59.932,12.111 L59.932,9.46 L59.932,6.809 Z" id="Combined-Shape"></path>
        </g>
    </g>
</svg>