<?xml version="1.0" encoding="UTF-8"?>
<svg width="249px" height="25px" viewBox="0 0 249 25" version="1.1" xmlns="http://www.w3.org/2000/svg" xmlns:xlink="http://www.w3.org/1999/xlink">
    <!-- Generator: Sketch 54.1 (76490) - https://sketchapp.com -->
    <title>Group 2</title>
    <desc>Created with Sketch.</desc>
    <g id="Page-1" stroke="none" stroke-width="1" fill="none" fill-rule="evenodd">
        <g id="OR9Z2Z1" transform="translate(-281.000000, -522.000000)" fill="#FFFFFF">
            <g id="Group-2" transform="translate(281.171000, 522.398000)">
                <path d="M124.314,5.331 C123.938,6.283 123.518,7.207 123.109,8.028 C122.066,10.111 121.187,11.406 120.469,12.212 C121.187,13.016 122.066,14.312 123.109,16.396 C123.518,17.214 123.938,18.141 124.314,19.094 C124.69,18.141 125.108,17.214 125.519,16.396 C126.56,14.312 127.439,13.016 128.158,12.212 C127.439,11.406 126.56,10.111 125.519,8.028 C125.108,7.207 124.69,6.283 124.314,5.331" id="Fill-209" fill-opacity="0.499863418"></path>
                <path d="M125.519,16.396 C125.108,17.214 124.69,18.141 124.314,19.094 C123.938,18.141 123.518,17.214 123.109,16.396 C122.066,14.312 121.187,13.016 120.469,12.212 C121.187,11.406 122.066,10.111 123.109,8.028 C123.518,7.207 123.938,6.283 124.314,5.331 C124.69,6.283 125.108,7.207 125.519,8.028 C126.56,10.111 127.439,11.406 128.158,12.212 C127.439,13.016 126.56,14.312 125.519,16.396 Z M248.627,12.212 L162.421,10.498 L149.712,12.206 C145.84,12.09 139.975,9.303 139.975,7.527 C139.975,9.285 134.234,12.034 130.362,12.204 C128.558,12.032 124.314,3.513 124.314,-1.42108547e-14 C124.314,3.512 120.071,12.032 118.265,12.204 C114.392,12.034 108.652,9.285 108.652,7.527 C108.652,9.303 102.789,12.09 98.917,12.206 L86.208,10.498 L-2.84217094e-14,12.212 L86.208,13.924 L98.914,12.216 C102.786,12.331 108.652,15.12 108.652,16.895 C108.652,15.138 114.395,12.389 118.267,12.219 C120.075,12.401 124.314,20.912 124.314,24.423 C124.314,20.912 128.552,12.401 130.359,12.219 C134.231,12.387 139.975,15.138 139.975,16.895 C139.975,15.12 145.843,12.331 149.714,12.216 L162.421,13.924 L248.627,12.212 L248.627,12.212 Z" id="Fill-210" fill-opacity="0.498907343"></path>
            </g>
        </g>
    </g>
</svg>