<?xml version="1.0" encoding="UTF-8"?>
<svg width="251px" height="42px" viewBox="0 0 251 42" version="1.1" xmlns="http://www.w3.org/2000/svg" xmlns:xlink="http://www.w3.org/1999/xlink">
    <!-- Generator: Sketch 54.1 (76490) - https://sketchapp.com -->
    <title>Group</title>
    <desc>Created with Sketch.</desc>
    <g id="Page-1" stroke="none" stroke-width="1" fill="none" fill-rule="evenodd" fill-opacity="0.497760052">
        <g id="OR9Z2Z1" transform="translate(-280.000000, -229.000000)" fill="#FFFFFF">
            <g id="Group" transform="translate(280.756000, 229.154000)">
                <path d="M129.446,7.83 C127.678,5.394 126.489,4.052 125.024,0 C123.558,4.052 122.372,5.394 120.603,7.83 C122.372,12.106 125.024,16.207 125.024,20.258 C125.024,16.207 127.678,12.106 129.446,7.83" id="Fill-211"></path>
                <path d="M120.603,33.184 C122.372,35.621 123.558,36.963 125.024,41.014 C126.489,36.963 127.678,35.621 129.446,33.184 C127.678,28.909 125.024,24.808 125.024,20.756 C125.024,24.808 122.372,28.909 120.603,33.184" id="Fill-212"></path>
                <path d="M11.522,20.495 C10.41,19.525 9.904,17.82 9.141,16.314 C8.044,16.222 7.388,16.233 5.913,15.672 C6.689,17.046 6.776,17.87 7.032,18.945 C8.632,19.47 10.392,18.846 11.517,20.846 C11.403,20.846 11.289,20.846 11.175,20.846 L11.397,20.662 C9.117,20.662 6.811,19.083 4.405,18.087 C3.032,19.083 2.279,19.708 -2.84217094e-14,20.532 C2.279,21.356 3.032,22.002 4.405,22.997 C6.628,22.078 8.765,20.724 10.877,20.526 C11.089,20.527 11.301,20.524 11.517,20.526 C10.392,21.481 8.632,21.721 7.032,22.249 C6.776,23.322 6.689,23.97 5.913,25.343 C7.388,24.783 8.044,24.792 9.141,24.701 C9.904,23.197 10.41,21.49 11.522,20.52 C31.139,20.686 70.962,22.38 89.335,23.53 C100.348,22.321 106.411,21.509 124.724,20.508 C106.411,19.506 100.348,18.694 89.335,17.485 C70.962,18.635 31.139,20.329 11.522,20.495" id="Fill-213"></path>
                <path d="M245.044,22.975 C246.416,21.981 247.17,21.313 249.449,20.488 C247.17,19.664 246.416,18.995 245.044,18 C242.639,18.995 240.333,20.662 238.053,20.662 L238.275,20.846 C238.16,20.846 238.046,20.846 237.931,20.846 C239.055,18.846 240.816,19.47 242.417,18.945 C242.672,17.87 242.76,17.134 243.535,15.761 C242.06,16.321 241.404,16.266 240.307,16.358 C239.546,17.864 239.039,19.547 237.925,20.517 C218.309,20.351 178.486,18.645 160.113,17.495 C149.156,18.697 143.095,19.503 125.007,20.498 C126.727,18.51 129.764,17.609 132.443,16.254 C132.604,14.301 132.589,13.135 133.585,10.513 C131.142,11.892 129.987,12.226 128.081,12.679 C127.142,15.531 126.71,18.846 125.001,20.846 L124.979,20.846 C123.269,18.846 122.837,15.529 121.899,12.677 C119.992,12.224 118.838,11.979 116.395,10.601 C117.391,13.222 117.375,14.343 117.535,16.296 C120.216,17.651 123.256,18.526 124.976,20.515 L124.724,20.52 L124.976,20.527 C123.256,22.515 120.216,23.409 117.535,24.765 C117.375,26.717 117.391,27.882 116.395,30.503 C118.838,29.125 119.992,29.129 121.899,28.678 C122.837,25.824 123.269,21.846 124.979,20.846 L125.001,20.846 C126.71,21.846 127.142,25.824 128.081,28.676 C129.987,29.127 131.142,29.205 133.585,30.583 C132.589,27.962 132.604,26.756 132.443,24.804 C129.764,23.448 126.727,22.531 125.007,20.543 C143.095,21.538 149.156,22.338 160.113,23.54 C178.486,22.39 218.309,20.69 237.925,20.524 C239.039,21.494 239.546,23.199 240.307,24.703 C241.404,24.794 242.06,24.783 243.535,25.343 C242.76,23.97 242.672,23.32 242.417,22.247 C240.816,21.72 239.055,21.476 237.931,20.52 C238.147,20.519 238.361,20.517 238.573,20.515 C240.682,20.714 242.82,22.056 245.044,22.975" id="Fill-214"></path>
            </g>
        </g>
    </g>
</svg>