<svg xmlns="http://www.w3.org/2000/svg" viewBox="0 0 50 50" width="50" height="50" preserveAspectRatio="xMidYMid meet"
     style="width: 100%; height: 100%; transform: translate3d(0px, 0px, 0px);">
    <defs>
        <clipPath id="__lottie_element_12">
            <rect width="50" height="50" x="0" y="0"></rect>
        </clipPath>
    </defs>
    <g clip-path="url(#__lottie_element_12)">
        <g transform="matrix(1,0,0,1,0,0)" opacity="1" style="display: block;">
            <g opacity="1" transform="matrix(1,0,0,1,25,16.5)">
                <path stroke-linecap="round" stroke-linejoin="round" fill-opacity="0" stroke="rgb(0,0,0)"
                      stroke-opacity="1" stroke-width="2"
                      d=" M24,-14.740819931030273 C24,-14.740819931030273 24,10.259180068969727 24,10.259180068969727 C24,10.259180068969727 18.557594299316406,12.258877754211426 12,13.679557800292969 C-0.44080328941345215,16.39632797241211 -4.322542190551758,15.085311889648438 -12,13.259491920471191 C-19.88361358642578,11.37809944152832 -24,13.5 -24,13.5 C-24,13.5 -24,-13.5 -24,-13.5 C-24,-13.5 -20.982818603515625,-15.387958526611328 -12,-12.831631660461426 C-3.5361549854278564,-10.442021369934082 3.131556987762451,-7.92425537109375 12,-12.187191009521484 C18.421724319458008,-15.326131820678711 22.453271865844727,-14.804031372070312 24,-14.740819931030273z"></path>
            </g>
            <g opacity="1" transform="matrix(1,0,0,1,0,0)">
                <path stroke-linecap="round" stroke-linejoin="round" fill-opacity="0" stroke="rgb(0,0,0)"
                      stroke-opacity="1" stroke-width="2" d=" M1,3 C1,3 1,49 1,49"></path>
            </g>
        </g>
    </g>
</svg>