<?xml version="1.0" encoding="UTF-8"?>
<svg width="512px" height="332px" viewBox="0 0 512 332" version="1.1" xmlns="http://www.w3.org/2000/svg" xmlns:xlink="http://www.w3.org/1999/xlink">
    <!-- Generator: Sketch 54.1 (76490) - https://sketchapp.com -->
    <title>keyboard</title>
    <desc>Created with Sketch.</desc>
    <g id="Page-1" stroke="none" stroke-width="1" fill="none" fill-rule="evenodd">
        <g id="keyboard" fill="#FFFFFF" fill-rule="nonzero">
            <path d="M481.596,0.907 L30.404,0.907 C13.353,0.907 0,14.261 0,31.311 L0,300.689 C0,317.454 13.639,331.093 30.404,331.093 L481.596,331.093 C498.361,331.093 512,317.454 512,300.689 L512,31.311 C512,14.546 498.361,0.907 481.596,0.907 Z M475.516,294.608 L36.485,294.608 L36.485,37.392 L475.516,37.392 L475.516,294.608 L475.516,294.608 Z" id="Shape"></path>
            <path d="M161.14,220.423 L350.86,220.423 L350.86,256.908 L161.14,256.908 L161.14,220.423 Z M73.577,73.876 L144.722,73.876 L144.722,110.361 L73.577,110.361 L73.577,73.876 Z M171.477,73.876 L242.622,73.876 L242.622,110.361 L171.477,110.361 L171.477,73.876 Z M269.378,73.876 L340.523,73.876 L340.523,110.361 L269.378,110.361 L269.378,73.876 Z M367.278,73.876 L438.417,73.876 L438.417,110.361 L367.278,110.361 L367.278,73.876 Z M73.577,150.494 L144.722,150.494 L144.722,186.979 L73.577,186.979 L73.577,150.494 Z M171.477,150.494 L242.622,150.494 L242.622,186.979 L171.477,186.979 L171.477,150.494 Z M269.378,150.494 L340.523,150.494 L340.523,186.979 L269.378,186.979 L269.378,150.494 Z M367.278,150.494 L438.417,150.494 L438.417,186.979 L367.278,186.979 L367.278,150.494 Z" id="Combined-Shape"></path>
        </g>
    </g>
</svg>